<?xml version="1.0" encoding="UTF-8"?>
<svg xmlns="http://www.w3.org/2000/svg" xmlns:xlink="http://www.w3.org/1999/xlink" width="6349.606299pt" height="4365.354331pt" viewBox="0 0 6349.606299 4365.354331" version="1.1">
<g id="surface31">
<path style=" stroke:none;fill-rule:nonzero;fill:rgb(50%,50%,50%);fill-opacity:1;" d="M 0 0 L 6349.605469 0 L 6349.605469 4365.355469 L 0 4365.355469 Z M 0 0 "/>
<path style=" stroke:none;fill-rule:nonzero;fill:rgb(100%,100%,100%);fill-opacity:1;" d="M 198.425781 198.425781 L 6151.183594 198.425781 L 6151.183594 4166.929688 L 198.425781 4166.929688 Z M 198.425781 198.425781 "/>
<path style=" stroke:none;fill-rule:nonzero;fill:rgb(0%,0%,0%);fill-opacity:1;" d="M 340.15625 340.15625 L 1048.816406 340.15625 L 1048.816406 1048.816406 L 340.15625 1048.816406 Z M 340.15625 340.15625 "/>
<path style=" stroke:none;fill-rule:nonzero;fill:rgb(100%,100%,100%);fill-opacity:1;" d="M 441.394531 441.394531 L 542.632812 441.394531 L 542.632812 947.582031 L 441.394531 947.582031 Z M 441.394531 441.394531 "/>
<path style=" stroke:none;fill-rule:nonzero;fill:rgb(0%,0%,0%);fill-opacity:1;" d="M 441.394531 441.394531 Z M 198.425781 1190.550781 L 1190.550781 1190.550781 L 1190.550781 2182.675781 L 198.425781 2182.675781 Z M 198.425781 1190.550781 "/>
<path style=" stroke:none;fill-rule:nonzero;fill:rgb(0%,0%,0%);fill-opacity:1;" d="M 340.15625 2324.410156 L 1048.816406 2324.410156 L 1048.816406 3033.070312 L 340.15625 3033.070312 Z M 340.15625 2324.410156 "/>
<path style=" stroke:none;fill-rule:nonzero;fill:rgb(100%,100%,100%);fill-opacity:1;" d="M 441.394531 2425.648438 L 542.632812 2425.648438 L 542.632812 2830.597656 L 441.394531 2830.597656 Z M 441.394531 2425.648438 "/>
<path style=" stroke:none;fill-rule:nonzero;fill:rgb(100%,100%,100%);fill-opacity:1;" d="M 643.871094 2729.359375 L 947.582031 2729.359375 L 947.582031 2931.832031 L 846.34375 2931.832031 L 846.34375 2830.597656 L 643.871094 2830.597656 Z M 643.871094 2729.359375 "/>
<path style=" stroke:none;fill-rule:nonzero;fill:rgb(100%,100%,100%);fill-opacity:1;" d="M 542.632812 2830.597656 L 643.871094 2830.597656 L 643.871094 2931.832031 L 542.632812 2931.832031 Z M 542.632812 2830.597656 "/>
<path style=" stroke:none;fill-rule:nonzero;fill:rgb(0%,0%,0%);fill-opacity:1;" d="M 441.394531 2425.648438 Z M 198.425781 3174.804688 L 1190.550781 3174.804688 L 1190.550781 4166.929688 L 198.425781 4166.929688 Z M 198.425781 3174.804688 "/>
<path style=" stroke:none;fill-rule:nonzero;fill:rgb(0%,0%,0%);fill-opacity:1;" d="M 1190.550781 198.425781 L 2182.675781 198.425781 L 2182.675781 1190.550781 L 1190.550781 1190.550781 Z M 1190.550781 198.425781 "/>
<path style=" stroke:none;fill-rule:nonzero;fill:rgb(0%,0%,0%);fill-opacity:1;" d="M 1332.285156 1332.285156 L 2040.945312 1332.285156 L 2040.945312 2040.945312 L 1332.285156 2040.945312 Z M 1332.285156 1332.285156 "/>
<path style=" stroke:none;fill-rule:nonzero;fill:rgb(100%,100%,100%);fill-opacity:1;" d="M 1433.519531 1433.519531 L 1534.757812 1433.519531 L 1534.757812 1838.46875 L 1433.519531 1838.46875 Z M 1433.519531 1433.519531 "/>
<path style=" stroke:none;fill-rule:nonzero;fill:rgb(100%,100%,100%);fill-opacity:1;" d="M 1534.757812 1838.46875 L 1838.46875 1838.46875 L 1838.46875 1939.707031 L 1534.757812 1939.707031 Z M 1534.757812 1838.46875 "/>
<path style=" stroke:none;fill-rule:nonzero;fill:rgb(0%,0%,0%);fill-opacity:1;" d="M 1433.519531 1433.519531 Z M 1190.550781 2182.675781 L 2182.675781 2182.675781 L 2182.675781 3174.800781 L 1190.550781 3174.800781 Z M 1190.550781 2182.675781 "/>
<path style=" stroke:none;fill-rule:nonzero;fill:rgb(0%,0%,0%);fill-opacity:1;" d="M 1332.285156 3316.535156 L 2040.945312 3316.535156 L 2040.945312 4025.195312 L 1332.285156 4025.195312 Z M 1332.285156 3316.535156 "/>
<path style=" stroke:none;fill-rule:nonzero;fill:rgb(100%,100%,100%);fill-opacity:1;" d="M 1433.519531 3417.773438 L 1534.757812 3417.773438 L 1534.757812 3721.484375 L 1433.519531 3721.484375 Z M 1433.519531 3417.773438 "/>
<path style=" stroke:none;fill-rule:nonzero;fill:rgb(100%,100%,100%);fill-opacity:1;" d="M 1534.757812 3721.484375 L 1635.996094 3721.484375 L 1635.996094 3822.722656 L 1534.757812 3822.722656 Z M 1534.757812 3721.484375 "/>
<path style=" stroke:none;fill-rule:nonzero;fill:rgb(100%,100%,100%);fill-opacity:1;" d="M 1838.46875 3721.484375 L 1939.707031 3721.484375 L 1939.707031 3923.960938 L 1635.996094 3923.960938 L 1635.996094 3822.722656 L 1838.46875 3822.722656 Z M 1838.46875 3721.484375 "/>
<path style=" stroke:none;fill-rule:nonzero;fill:rgb(100%,100%,100%);fill-opacity:1;" d="M 1433.519531 3822.722656 L 1534.757812 3822.722656 L 1534.757812 3923.960938 L 1433.519531 3923.960938 Z M 1433.519531 3822.722656 "/>
<path style=" stroke:none;fill-rule:nonzero;fill:rgb(0%,0%,0%);fill-opacity:1;" d="M 1433.519531 3417.773438 Z M 2324.410156 340.15625 L 3033.070312 340.15625 L 3033.070312 1048.816406 L 2324.410156 1048.816406 Z M 2324.410156 340.15625 "/>
<path style=" stroke:none;fill-rule:nonzero;fill:rgb(100%,100%,100%);fill-opacity:1;" d="M 2425.648438 441.394531 L 2526.882812 441.394531 L 2526.882812 947.582031 L 2425.648438 947.582031 Z M 2425.648438 441.394531 "/>
<path style=" stroke:none;fill-rule:nonzero;fill:rgb(100%,100%,100%);fill-opacity:1;" d="M 2628.121094 846.34375 L 2931.832031 846.34375 L 2931.832031 947.582031 L 2628.121094 947.582031 Z M 2628.121094 846.34375 "/>
<path style=" stroke:none;fill-rule:nonzero;fill:rgb(0%,0%,0%);fill-opacity:1;" d="M 2425.648438 441.394531 Z M 2182.675781 1190.550781 L 3174.800781 1190.550781 L 3174.800781 2182.675781 L 2182.675781 2182.675781 Z M 2182.675781 1190.550781 "/>
<path style=" stroke:none;fill-rule:nonzero;fill:rgb(0%,0%,0%);fill-opacity:1;" d="M 2324.410156 2324.410156 L 3033.070312 2324.410156 L 3033.070312 3033.070312 L 2324.410156 3033.070312 Z M 2324.410156 2324.410156 "/>
<path style=" stroke:none;fill-rule:nonzero;fill:rgb(100%,100%,100%);fill-opacity:1;" d="M 2425.648438 2425.648438 L 2526.882812 2425.648438 L 2526.882812 2830.597656 L 2425.648438 2830.597656 Z M 2425.648438 2425.648438 "/>
<path style=" stroke:none;fill-rule:nonzero;fill:rgb(100%,100%,100%);fill-opacity:1;" d="M 2628.121094 2729.359375 L 2931.832031 2729.359375 L 2931.832031 2830.597656 L 2830.597656 2830.597656 L 2830.597656 2931.832031 L 2526.882812 2931.832031 L 2526.882812 2830.597656 L 2628.121094 2830.597656 Z M 2628.121094 2729.359375 "/>
<path style=" stroke:none;fill-rule:nonzero;fill:rgb(0%,0%,0%);fill-opacity:1;" d="M 2425.648438 2425.648438 Z M 2182.675781 3174.804688 L 3174.800781 3174.804688 L 3174.800781 4166.929688 L 2182.675781 4166.929688 Z M 2182.675781 3174.804688 "/>
<path style=" stroke:none;fill-rule:nonzero;fill:rgb(0%,0%,0%);fill-opacity:1;" d="M 3174.804688 198.425781 L 4166.929688 198.425781 L 4166.929688 1190.550781 L 3174.804688 1190.550781 Z M 3174.804688 198.425781 "/>
<path style=" stroke:none;fill-rule:nonzero;fill:rgb(0%,0%,0%);fill-opacity:1;" d="M 3316.535156 1332.285156 L 4025.195312 1332.285156 L 4025.195312 2040.945312 L 3316.535156 2040.945312 Z M 3316.535156 1332.285156 "/>
<path style=" stroke:none;fill-rule:nonzero;fill:rgb(100%,100%,100%);fill-opacity:1;" d="M 3417.773438 1433.519531 L 3519.011719 1433.519531 L 3519.011719 1939.707031 L 3417.773438 1939.707031 Z M 3417.773438 1433.519531 "/>
<path style=" stroke:none;fill-rule:nonzero;fill:rgb(100%,100%,100%);fill-opacity:1;" d="M 3620.246094 1737.234375 L 3923.960938 1737.234375 L 3923.960938 1838.46875 L 3620.246094 1838.46875 Z M 3620.246094 1737.234375 "/>
<path style=" stroke:none;fill-rule:nonzero;fill:rgb(0%,0%,0%);fill-opacity:1;" d="M 3417.773438 1433.519531 Z M 3174.804688 2182.675781 L 4166.929688 2182.675781 L 4166.929688 3174.800781 L 3174.804688 3174.800781 Z M 3174.804688 2182.675781 "/>
<path style=" stroke:none;fill-rule:nonzero;fill:rgb(0%,0%,0%);fill-opacity:1;" d="M 3316.535156 3316.535156 L 4025.195312 3316.535156 L 4025.195312 4025.195312 L 3316.535156 4025.195312 Z M 3316.535156 3316.535156 "/>
<path style=" stroke:none;fill-rule:nonzero;fill:rgb(100%,100%,100%);fill-opacity:1;" d="M 3417.773438 3417.773438 L 3519.011719 3417.773438 L 3519.011719 3721.484375 L 3417.773438 3721.484375 Z M 3417.773438 3417.773438 "/>
<path style=" stroke:none;fill-rule:nonzero;fill:rgb(100%,100%,100%);fill-opacity:1;" d="M 3519.011719 3721.484375 L 3620.246094 3721.484375 L 3620.246094 3923.960938 L 3519.011719 3923.960938 Z M 3519.011719 3721.484375 "/>
<path style=" stroke:none;fill-rule:nonzero;fill:rgb(100%,100%,100%);fill-opacity:1;" d="M 3822.722656 3721.484375 L 3923.960938 3721.484375 L 3923.960938 3923.960938 L 3822.722656 3923.960938 Z M 3822.722656 3721.484375 "/>
<path style=" stroke:none;fill-rule:nonzero;fill:rgb(0%,0%,0%);fill-opacity:1;" d="M 3417.773438 3417.773438 Z M 4308.660156 340.15625 L 5017.320312 340.15625 L 5017.320312 1048.816406 L 4308.660156 1048.816406 Z M 4308.660156 340.15625 "/>
<path style=" stroke:none;fill-rule:nonzero;fill:rgb(100%,100%,100%);fill-opacity:1;" d="M 4409.898438 441.394531 L 4511.136719 441.394531 L 4511.136719 846.34375 L 4409.898438 846.34375 Z M 4409.898438 441.394531 "/>
<path style=" stroke:none;fill-rule:nonzero;fill:rgb(100%,100%,100%);fill-opacity:1;" d="M 4511.136719 846.34375 L 4612.375 846.34375 L 4612.375 947.582031 L 4511.136719 947.582031 Z M 4511.136719 846.34375 "/>
<path style=" stroke:none;fill-rule:nonzero;fill:rgb(100%,100%,100%);fill-opacity:1;" d="M 4814.847656 846.34375 L 4916.085938 846.34375 L 4916.085938 947.582031 L 4814.847656 947.582031 Z M 4814.847656 846.34375 "/>
<path style=" stroke:none;fill-rule:nonzero;fill:rgb(0%,0%,0%);fill-opacity:1;" d="M 4409.898438 441.394531 Z M 4166.929688 1190.550781 L 5159.054688 1190.550781 L 5159.054688 2182.675781 L 4166.929688 2182.675781 Z M 4166.929688 1190.550781 "/>
<path style=" stroke:none;fill-rule:nonzero;fill:rgb(0%,0%,0%);fill-opacity:1;" d="M 4308.660156 2324.410156 L 5017.320312 2324.410156 L 5017.320312 3033.070312 L 4308.660156 3033.070312 Z M 4308.660156 2324.410156 "/>
<path style=" stroke:none;fill-rule:nonzero;fill:rgb(100%,100%,100%);fill-opacity:1;" d="M 4409.898438 2425.648438 L 4511.136719 2425.648438 L 4511.136719 2729.359375 L 4409.898438 2729.359375 Z M 4409.898438 2425.648438 "/>
<path style=" stroke:none;fill-rule:nonzero;fill:rgb(100%,100%,100%);fill-opacity:1;" d="M 4511.136719 2729.359375 L 4612.375 2729.359375 L 4612.375 2830.597656 L 4511.136719 2830.597656 Z M 4511.136719 2729.359375 "/>
<path style=" stroke:none;fill-rule:nonzero;fill:rgb(100%,100%,100%);fill-opacity:1;" d="M 4814.847656 2729.359375 L 4916.085938 2729.359375 L 4916.085938 2830.597656 L 4814.847656 2830.597656 Z M 4814.847656 2729.359375 "/>
<path style=" stroke:none;fill-rule:nonzero;fill:rgb(100%,100%,100%);fill-opacity:1;" d="M 4409.898438 2830.597656 L 4511.136719 2830.597656 L 4511.136719 2931.832031 L 4409.898438 2931.832031 Z M 4409.898438 2830.597656 "/>
<path style=" stroke:none;fill-rule:nonzero;fill:rgb(0%,0%,0%);fill-opacity:1;" d="M 4409.898438 2425.648438 Z M 4166.929688 3174.804688 L 5159.054688 3174.804688 L 5159.054688 4166.929688 L 4166.929688 4166.929688 Z M 4166.929688 3174.804688 "/>
<path style=" stroke:none;fill-rule:nonzero;fill:rgb(0%,0%,0%);fill-opacity:1;" d="M 5159.054688 198.425781 L 6151.179688 198.425781 L 6151.179688 1190.550781 L 5159.054688 1190.550781 Z M 5159.054688 198.425781 "/>
<path style=" stroke:none;fill-rule:nonzero;fill:rgb(0%,0%,0%);fill-opacity:1;" d="M 5300.789062 1332.285156 L 6009.449219 1332.285156 L 6009.449219 2040.945312 L 5300.789062 2040.945312 Z M 5300.789062 1332.285156 "/>
<path style=" stroke:none;fill-rule:nonzero;fill:rgb(100%,100%,100%);fill-opacity:1;" d="M 5402.023438 1433.519531 L 5503.261719 1433.519531 L 5503.261719 1939.707031 L 5402.023438 1939.707031 Z M 5402.023438 1433.519531 "/>
<path style=" stroke:none;fill-rule:nonzero;fill:rgb(100%,100%,100%);fill-opacity:1;" d="M 5604.5 1737.234375 L 5908.210938 1737.234375 L 5908.210938 1939.707031 L 5604.5 1939.707031 Z M 5604.5 1737.234375 "/>
<path style=" stroke:none;fill-rule:nonzero;fill:rgb(0%,0%,0%);fill-opacity:1;" d="M 5402.023438 1433.519531 Z M 5159.054688 2182.675781 L 6151.179688 2182.675781 L 6151.179688 3174.800781 L 5159.054688 3174.800781 Z M 5159.054688 2182.675781 "/>
<path style=" stroke:none;fill-rule:nonzero;fill:rgb(0%,0%,0%);fill-opacity:1;" d="M 5300.789062 3316.535156 L 6009.449219 3316.535156 L 6009.449219 4025.195312 L 5300.789062 4025.195312 Z M 5300.789062 3316.535156 "/>
<path style=" stroke:none;fill-rule:nonzero;fill:rgb(100%,100%,100%);fill-opacity:1;" d="M 5402.023438 3417.773438 L 5503.261719 3417.773438 L 5503.261719 3721.484375 L 5402.023438 3721.484375 Z M 5402.023438 3417.773438 "/>
<path style=" stroke:none;fill-rule:nonzero;fill:rgb(100%,100%,100%);fill-opacity:1;" d="M 5503.261719 3721.484375 L 5604.5 3721.484375 L 5604.5 3822.722656 L 5806.972656 3822.722656 L 5806.972656 3923.960938 L 5503.261719 3923.960938 Z M 5503.261719 3721.484375 "/>
<path style=" stroke:none;fill-rule:nonzero;fill:rgb(100%,100%,100%);fill-opacity:1;" d="M 5806.972656 3721.484375 L 5908.210938 3721.484375 L 5908.210938 3822.722656 L 5806.972656 3822.722656 Z M 5806.972656 3721.484375 "/>
</g>
</svg>
