<?xml version="1.0" encoding="UTF-8"?>
<svg xmlns="http://www.w3.org/2000/svg" xmlns:xlink="http://www.w3.org/1999/xlink" width="3401.574803pt" height="5527.559055pt" viewBox="0 0 3401.574803 5527.559055" version="1.1">
<g id="surface49">
<path style=" stroke:none;fill-rule:nonzero;fill:rgb(50%,50%,50%);fill-opacity:1;" d="M 0 0 L 3401.574219 0 L 3401.574219 5527.558594 L 0 5527.558594 Z M 0 0 "/>
<path style=" stroke:none;fill-rule:nonzero;fill:rgb(100%,100%,100%);fill-opacity:1;" d="M 212.597656 212.597656 L 3188.976562 212.597656 L 3188.976562 5314.960938 L 212.597656 5314.960938 Z M 212.597656 212.597656 "/>
<path style=" stroke:none;fill-rule:nonzero;fill:rgb(0%,0%,0%);fill-opacity:1;" d="M 325.984375 325.984375 L 524.410156 325.984375 L 524.410156 524.410156 L 325.984375 524.410156 Z M 325.984375 325.984375 "/>
<path style=" stroke:none;fill-rule:nonzero;fill:rgb(100%,100%,100%);fill-opacity:1;" d="M 359.054688 359.054688 L 392.125 359.054688 L 392.125 392.125 L 359.054688 392.125 Z M 359.054688 359.054688 "/>
<path style=" stroke:none;fill-rule:nonzero;fill:rgb(100%,100%,100%);fill-opacity:1;" d="M 425.195312 359.054688 L 491.339844 359.054688 L 491.339844 458.269531 L 458.269531 458.269531 L 458.269531 491.339844 L 425.195312 491.339844 L 425.195312 425.195312 L 458.269531 425.195312 L 458.269531 392.125 L 425.195312 392.125 Z M 425.195312 359.054688 "/>
<path style=" stroke:none;fill-rule:nonzero;fill:rgb(100%,100%,100%);fill-opacity:1;" d="M 392.125 392.125 L 425.195312 392.125 L 425.195312 425.195312 L 392.125 425.195312 Z M 392.125 392.125 "/>
<path style=" stroke:none;fill-rule:nonzero;fill:rgb(0%,0%,0%);fill-opacity:1;" d="M 359.054688 359.054688 Z M 212.597656 637.796875 L 637.792969 637.796875 L 637.792969 1062.992188 L 212.597656 1062.992188 Z M 212.597656 637.796875 "/>
<path style=" stroke:none;fill-rule:nonzero;fill:rgb(0%,0%,0%);fill-opacity:1;" d="M 325.984375 1176.378906 L 524.410156 1176.378906 L 524.410156 1374.804688 L 325.984375 1374.804688 Z M 325.984375 1176.378906 "/>
<path style=" stroke:none;fill-rule:nonzero;fill:rgb(100%,100%,100%);fill-opacity:1;" d="M 359.054688 1209.449219 L 425.195312 1209.449219 L 425.195312 1275.589844 L 491.339844 1275.589844 L 491.339844 1308.660156 L 458.269531 1308.660156 L 458.269531 1341.730469 L 425.195312 1341.730469 L 425.195312 1308.660156 L 359.054688 1308.660156 L 359.054688 1275.589844 L 392.125 1275.589844 L 392.125 1242.519531 L 359.054688 1242.519531 Z M 359.054688 1209.449219 "/>
<path style=" stroke:none;fill-rule:nonzero;fill:rgb(0%,0%,0%);fill-opacity:1;" d="M 359.054688 1209.449219 Z M 212.597656 1488.1875 L 637.792969 1488.1875 L 637.792969 1913.382812 L 212.597656 1913.382812 Z M 212.597656 1488.1875 "/>
<path style=" stroke:none;fill-rule:nonzero;fill:rgb(0%,0%,0%);fill-opacity:1;" d="M 325.984375 2026.773438 L 524.410156 2026.773438 L 524.410156 2225.199219 L 325.984375 2225.199219 Z M 325.984375 2026.773438 "/>
<path style=" stroke:none;fill-rule:nonzero;fill:rgb(100%,100%,100%);fill-opacity:1;" d="M 425.195312 2059.84375 L 458.269531 2059.84375 L 458.269531 2092.914062 L 425.195312 2092.914062 Z M 425.195312 2059.84375 "/>
<path style=" stroke:none;fill-rule:nonzero;fill:rgb(100%,100%,100%);fill-opacity:1;" d="M 392.125 2092.914062 L 425.195312 2092.914062 L 425.195312 2125.984375 L 392.125 2125.984375 Z M 392.125 2092.914062 "/>
<path style=" stroke:none;fill-rule:nonzero;fill:rgb(100%,100%,100%);fill-opacity:1;" d="M 359.054688 2125.984375 L 392.125 2125.984375 L 392.125 2159.054688 L 359.054688 2159.054688 Z M 359.054688 2125.984375 "/>
<path style=" stroke:none;fill-rule:nonzero;fill:rgb(100%,100%,100%);fill-opacity:1;" d="M 425.195312 2125.984375 L 491.339844 2125.984375 L 491.339844 2192.125 L 458.269531 2192.125 L 458.269531 2159.054688 L 425.195312 2159.054688 Z M 425.195312 2125.984375 "/>
<path style=" stroke:none;fill-rule:nonzero;fill:rgb(0%,0%,0%);fill-opacity:1;" d="M 359.054688 2059.84375 Z M 212.597656 2338.582031 L 637.792969 2338.582031 L 637.792969 2763.777344 L 212.597656 2763.777344 Z M 212.597656 2338.582031 "/>
<path style=" stroke:none;fill-rule:nonzero;fill:rgb(0%,0%,0%);fill-opacity:1;" d="M 325.984375 2877.164062 L 524.410156 2877.164062 L 524.410156 3075.589844 L 325.984375 3075.589844 Z M 325.984375 2877.164062 "/>
<path style=" stroke:none;fill-rule:nonzero;fill:rgb(100%,100%,100%);fill-opacity:1;" d="M 359.054688 2910.234375 L 392.125 2910.234375 L 392.125 2943.308594 L 359.054688 2943.308594 Z M 359.054688 2910.234375 "/>
<path style=" stroke:none;fill-rule:nonzero;fill:rgb(100%,100%,100%);fill-opacity:1;" d="M 425.195312 2910.234375 L 491.339844 2910.234375 L 491.339844 2943.308594 L 425.195312 2943.308594 Z M 425.195312 2910.234375 "/>
<path style=" stroke:none;fill-rule:nonzero;fill:rgb(100%,100%,100%);fill-opacity:1;" d="M 425.195312 2976.378906 L 458.269531 2976.378906 L 458.269531 3009.449219 L 491.339844 3009.449219 L 491.339844 3042.519531 L 425.195312 3042.519531 Z M 425.195312 2976.378906 "/>
<path style=" stroke:none;fill-rule:nonzero;fill:rgb(100%,100%,100%);fill-opacity:1;" d="M 359.054688 3009.449219 L 392.125 3009.449219 L 392.125 3042.519531 L 359.054688 3042.519531 Z M 359.054688 3009.449219 "/>
<path style=" stroke:none;fill-rule:nonzero;fill:rgb(0%,0%,0%);fill-opacity:1;" d="M 359.054688 2910.234375 Z M 212.597656 3188.976562 L 637.792969 3188.976562 L 637.792969 3614.171875 L 212.597656 3614.171875 Z M 212.597656 3188.976562 "/>
<path style=" stroke:none;fill-rule:nonzero;fill:rgb(0%,0%,0%);fill-opacity:1;" d="M 325.984375 3727.558594 L 524.410156 3727.558594 L 524.410156 3925.984375 L 325.984375 3925.984375 Z M 325.984375 3727.558594 "/>
<path style=" stroke:none;fill-rule:nonzero;fill:rgb(100%,100%,100%);fill-opacity:1;" d="M 425.195312 3760.628906 L 458.269531 3760.628906 L 458.269531 3793.699219 L 425.195312 3793.699219 Z M 425.195312 3760.628906 "/>
<path style=" stroke:none;fill-rule:nonzero;fill:rgb(100%,100%,100%);fill-opacity:1;" d="M 458.269531 3793.699219 L 491.339844 3793.699219 L 491.339844 3826.773438 L 458.269531 3826.773438 Z M 458.269531 3793.699219 "/>
<path style=" stroke:none;fill-rule:nonzero;fill:rgb(100%,100%,100%);fill-opacity:1;" d="M 425.195312 3826.773438 L 458.269531 3826.773438 L 458.269531 3859.84375 L 491.339844 3859.84375 L 491.339844 3892.914062 L 425.195312 3892.914062 Z M 425.195312 3826.773438 "/>
<path style=" stroke:none;fill-rule:nonzero;fill:rgb(0%,0%,0%);fill-opacity:1;" d="M 359.054688 3760.628906 Z M 212.597656 4039.371094 L 637.792969 4039.371094 L 637.792969 4464.566406 L 212.597656 4464.566406 Z M 212.597656 4039.371094 "/>
<path style=" stroke:none;fill-rule:nonzero;fill:rgb(0%,0%,0%);fill-opacity:1;" d="M 325.984375 4577.953125 L 524.410156 4577.953125 L 524.410156 4776.378906 L 325.984375 4776.378906 Z M 325.984375 4577.953125 "/>
<path style=" stroke:none;fill-rule:nonzero;fill:rgb(100%,100%,100%);fill-opacity:1;" d="M 359.054688 4644.09375 L 392.125 4644.09375 L 392.125 4677.164062 L 359.054688 4677.164062 Z M 359.054688 4644.09375 "/>
<path style=" stroke:none;fill-rule:nonzero;fill:rgb(100%,100%,100%);fill-opacity:1;" d="M 458.269531 4644.09375 L 491.339844 4644.09375 L 491.339844 4677.164062 L 458.269531 4677.164062 Z M 458.269531 4644.09375 "/>
<path style=" stroke:none;fill-rule:nonzero;fill:rgb(100%,100%,100%);fill-opacity:1;" d="M 425.195312 4677.164062 L 458.269531 4677.164062 L 458.269531 4710.234375 L 425.195312 4710.234375 Z M 425.195312 4677.164062 "/>
<path style=" stroke:none;fill-rule:nonzero;fill:rgb(100%,100%,100%);fill-opacity:1;" d="M 359.054688 4710.234375 L 392.125 4710.234375 L 392.125 4743.308594 L 359.054688 4743.308594 Z M 359.054688 4710.234375 "/>
<path style=" stroke:none;fill-rule:nonzero;fill:rgb(100%,100%,100%);fill-opacity:1;" d="M 458.269531 4710.234375 L 491.339844 4710.234375 L 491.339844 4743.308594 L 458.269531 4743.308594 Z M 458.269531 4710.234375 "/>
<path style=" stroke:none;fill-rule:nonzero;fill:rgb(0%,0%,0%);fill-opacity:1;" d="M 359.054688 4611.023438 Z M 212.597656 4889.765625 L 637.792969 4889.765625 L 637.792969 5314.960938 L 212.597656 5314.960938 Z M 212.597656 4889.765625 "/>
<path style=" stroke:none;fill-rule:nonzero;fill:rgb(0%,0%,0%);fill-opacity:1;" d="M 637.796875 212.597656 L 1062.992188 212.597656 L 1062.992188 637.792969 L 637.796875 637.792969 Z M 637.796875 212.597656 "/>
<path style=" stroke:none;fill-rule:nonzero;fill:rgb(0%,0%,0%);fill-opacity:1;" d="M 751.179688 751.179688 L 949.605469 751.179688 L 949.605469 949.605469 L 751.179688 949.605469 Z M 751.179688 751.179688 "/>
<path style=" stroke:none;fill-rule:nonzero;fill:rgb(100%,100%,100%);fill-opacity:1;" d="M 817.324219 784.253906 L 850.394531 784.253906 L 850.394531 850.394531 L 817.324219 850.394531 Z M 817.324219 784.253906 "/>
<path style=" stroke:none;fill-rule:nonzero;fill:rgb(100%,100%,100%);fill-opacity:1;" d="M 883.464844 784.253906 L 916.535156 784.253906 L 916.535156 817.324219 L 883.464844 817.324219 Z M 883.464844 784.253906 "/>
<path style=" stroke:none;fill-rule:nonzero;fill:rgb(100%,100%,100%);fill-opacity:1;" d="M 784.253906 850.394531 L 817.324219 850.394531 L 817.324219 883.464844 L 883.464844 883.464844 L 883.464844 916.535156 L 784.253906 916.535156 Z M 784.253906 850.394531 "/>
<path style=" stroke:none;fill-rule:nonzero;fill:rgb(100%,100%,100%);fill-opacity:1;" d="M 883.464844 850.394531 L 916.535156 850.394531 L 916.535156 883.464844 L 883.464844 883.464844 Z M 883.464844 850.394531 "/>
<path style=" stroke:none;fill-rule:nonzero;fill:rgb(0%,0%,0%);fill-opacity:1;" d="M 784.253906 784.253906 Z M 637.796875 1062.992188 L 1062.992188 1062.992188 L 1062.992188 1488.1875 L 637.796875 1488.1875 Z M 637.796875 1062.992188 "/>
<path style=" stroke:none;fill-rule:nonzero;fill:rgb(0%,0%,0%);fill-opacity:1;" d="M 751.179688 1601.574219 L 949.605469 1601.574219 L 949.605469 1800 L 751.179688 1800 Z M 751.179688 1601.574219 "/>
<path style=" stroke:none;fill-rule:nonzero;fill:rgb(100%,100%,100%);fill-opacity:1;" d="M 883.464844 1634.644531 L 916.535156 1634.644531 L 916.535156 1700.789062 L 883.464844 1700.789062 Z M 883.464844 1634.644531 "/>
<path style=" stroke:none;fill-rule:nonzero;fill:rgb(100%,100%,100%);fill-opacity:1;" d="M 784.253906 1700.789062 L 817.324219 1700.789062 L 817.324219 1733.859375 L 784.253906 1733.859375 Z M 784.253906 1700.789062 "/>
<path style=" stroke:none;fill-rule:nonzero;fill:rgb(100%,100%,100%);fill-opacity:1;" d="M 850.394531 1700.789062 L 883.464844 1700.789062 L 883.464844 1733.859375 L 916.535156 1733.859375 L 916.535156 1766.929688 L 817.324219 1766.929688 L 817.324219 1733.859375 L 850.394531 1733.859375 Z M 850.394531 1700.789062 "/>
<path style=" stroke:none;fill-rule:nonzero;fill:rgb(0%,0%,0%);fill-opacity:1;" d="M 784.253906 1634.644531 Z M 637.796875 1913.386719 L 1062.992188 1913.386719 L 1062.992188 2338.582031 L 637.796875 2338.582031 Z M 637.796875 1913.386719 "/>
<path style=" stroke:none;fill-rule:nonzero;fill:rgb(0%,0%,0%);fill-opacity:1;" d="M 751.179688 2451.96875 L 949.605469 2451.96875 L 949.605469 2650.394531 L 751.179688 2650.394531 Z M 751.179688 2451.96875 "/>
<path style=" stroke:none;fill-rule:nonzero;fill:rgb(100%,100%,100%);fill-opacity:1;" d="M 817.324219 2485.039062 L 883.464844 2485.039062 L 883.464844 2518.109375 L 850.394531 2518.109375 L 850.394531 2584.253906 L 883.464844 2584.253906 L 883.464844 2617.324219 L 784.253906 2617.324219 L 784.253906 2584.253906 L 817.324219 2584.253906 L 817.324219 2551.179688 L 784.253906 2551.179688 L 784.253906 2518.109375 L 817.324219 2518.109375 Z M 817.324219 2485.039062 "/>
<path style=" stroke:none;fill-rule:nonzero;fill:rgb(100%,100%,100%);fill-opacity:1;" d="M 883.464844 2551.179688 L 916.535156 2551.179688 L 916.535156 2584.253906 L 883.464844 2584.253906 Z M 883.464844 2551.179688 "/>
<path style=" stroke:none;fill-rule:nonzero;fill:rgb(0%,0%,0%);fill-opacity:1;" d="M 784.253906 2485.039062 Z M 637.796875 2763.78125 L 1062.992188 2763.78125 L 1062.992188 3188.976562 L 637.796875 3188.976562 Z M 637.796875 2763.78125 "/>
<path style=" stroke:none;fill-rule:nonzero;fill:rgb(0%,0%,0%);fill-opacity:1;" d="M 751.179688 3302.363281 L 949.605469 3302.363281 L 949.605469 3500.789062 L 751.179688 3500.789062 Z M 751.179688 3302.363281 "/>
<path style=" stroke:none;fill-rule:nonzero;fill:rgb(100%,100%,100%);fill-opacity:1;" d="M 784.253906 3335.433594 L 817.324219 3335.433594 L 817.324219 3368.503906 L 784.253906 3368.503906 Z M 784.253906 3335.433594 "/>
<path style=" stroke:none;fill-rule:nonzero;fill:rgb(100%,100%,100%);fill-opacity:1;" d="M 883.464844 3335.433594 L 916.535156 3335.433594 L 916.535156 3368.503906 L 883.464844 3368.503906 Z M 883.464844 3335.433594 "/>
<path style=" stroke:none;fill-rule:nonzero;fill:rgb(100%,100%,100%);fill-opacity:1;" d="M 817.324219 3368.503906 L 850.394531 3368.503906 L 850.394531 3401.574219 L 916.535156 3401.574219 L 916.535156 3467.714844 L 883.464844 3467.714844 L 883.464844 3434.644531 L 817.324219 3434.644531 Z M 817.324219 3368.503906 "/>
<path style=" stroke:none;fill-rule:nonzero;fill:rgb(0%,0%,0%);fill-opacity:1;" d="M 784.253906 3335.433594 Z M 637.796875 3614.171875 L 1062.992188 3614.171875 L 1062.992188 4039.367188 L 637.796875 4039.367188 Z M 637.796875 3614.171875 "/>
<path style=" stroke:none;fill-rule:nonzero;fill:rgb(0%,0%,0%);fill-opacity:1;" d="M 751.179688 4152.757812 L 949.605469 4152.757812 L 949.605469 4351.183594 L 751.179688 4351.183594 Z M 751.179688 4152.757812 "/>
<path style=" stroke:none;fill-rule:nonzero;fill:rgb(100%,100%,100%);fill-opacity:1;" d="M 784.253906 4185.828125 L 817.324219 4185.828125 L 817.324219 4218.898438 L 883.464844 4218.898438 L 883.464844 4251.96875 L 850.394531 4251.96875 L 850.394531 4285.039062 L 916.535156 4285.039062 L 916.535156 4318.109375 L 784.253906 4318.109375 Z M 784.253906 4185.828125 "/>
<path style=" stroke:none;fill-rule:nonzero;fill:rgb(100%,100%,100%);fill-opacity:1;" d="M 883.464844 4185.828125 L 916.535156 4185.828125 L 916.535156 4218.898438 L 883.464844 4218.898438 Z M 883.464844 4185.828125 "/>
<path style=" stroke:none;fill-rule:nonzero;fill:rgb(0%,0%,0%);fill-opacity:1;" d="M 784.253906 4185.828125 Z M 637.796875 4464.566406 L 1062.992188 4464.566406 L 1062.992188 4889.761719 L 637.796875 4889.761719 Z M 637.796875 4464.566406 "/>
<path style=" stroke:none;fill-rule:nonzero;fill:rgb(0%,0%,0%);fill-opacity:1;" d="M 751.179688 5003.148438 L 949.605469 5003.148438 L 949.605469 5201.574219 L 751.179688 5201.574219 Z M 751.179688 5003.148438 "/>
<path style=" stroke:none;fill-rule:nonzero;fill:rgb(100%,100%,100%);fill-opacity:1;" d="M 883.464844 5036.21875 L 916.535156 5036.21875 L 916.535156 5069.292969 L 883.464844 5069.292969 Z M 883.464844 5036.21875 "/>
<path style=" stroke:none;fill-rule:nonzero;fill:rgb(100%,100%,100%);fill-opacity:1;" d="M 784.253906 5069.292969 L 850.394531 5069.292969 L 850.394531 5135.433594 L 817.324219 5135.433594 L 817.324219 5102.363281 L 784.253906 5102.363281 Z M 784.253906 5069.292969 "/>
<path style=" stroke:none;fill-rule:nonzero;fill:rgb(100%,100%,100%);fill-opacity:1;" d="M 883.464844 5102.363281 L 916.535156 5102.363281 L 916.535156 5135.433594 L 883.464844 5135.433594 Z M 883.464844 5102.363281 "/>
<path style=" stroke:none;fill-rule:nonzero;fill:rgb(100%,100%,100%);fill-opacity:1;" d="M 784.253906 5135.433594 L 817.324219 5135.433594 L 817.324219 5168.503906 L 784.253906 5168.503906 Z M 784.253906 5135.433594 "/>
<path style=" stroke:none;fill-rule:nonzero;fill:rgb(100%,100%,100%);fill-opacity:1;" d="M 850.394531 5135.433594 L 883.464844 5135.433594 L 883.464844 5168.503906 L 850.394531 5168.503906 Z M 850.394531 5135.433594 "/>
<path style=" stroke:none;fill-rule:nonzero;fill:rgb(0%,0%,0%);fill-opacity:1;" d="M 784.253906 5036.21875 Z M 1176.378906 325.984375 L 1374.804688 325.984375 L 1374.804688 524.410156 L 1176.378906 524.410156 Z M 1176.378906 325.984375 "/>
<path style=" stroke:none;fill-rule:nonzero;fill:rgb(100%,100%,100%);fill-opacity:1;" d="M 1209.449219 392.125 L 1341.730469 392.125 L 1341.730469 458.269531 L 1308.660156 458.269531 L 1308.660156 425.195312 L 1242.519531 425.195312 L 1242.519531 491.339844 L 1209.449219 491.339844 Z M 1209.449219 392.125 "/>
<path style=" stroke:none;fill-rule:nonzero;fill:rgb(100%,100%,100%);fill-opacity:1;" d="M 1275.589844 458.269531 L 1308.660156 458.269531 L 1308.660156 491.339844 L 1275.589844 491.339844 Z M 1275.589844 458.269531 "/>
<path style=" stroke:none;fill-rule:nonzero;fill:rgb(0%,0%,0%);fill-opacity:1;" d="M 1209.449219 359.054688 Z M 1062.992188 637.796875 L 1488.1875 637.796875 L 1488.1875 1062.992188 L 1062.992188 1062.992188 Z M 1062.992188 637.796875 "/>
<path style=" stroke:none;fill-rule:nonzero;fill:rgb(0%,0%,0%);fill-opacity:1;" d="M 1176.378906 1176.378906 L 1374.804688 1176.378906 L 1374.804688 1374.804688 L 1176.378906 1374.804688 Z M 1176.378906 1176.378906 "/>
<path style=" stroke:none;fill-rule:nonzero;fill:rgb(100%,100%,100%);fill-opacity:1;" d="M 1209.449219 1209.449219 L 1341.730469 1209.449219 L 1341.730469 1242.519531 L 1308.660156 1242.519531 L 1308.660156 1275.589844 L 1275.589844 1275.589844 L 1275.589844 1308.660156 L 1242.519531 1308.660156 L 1242.519531 1341.730469 L 1209.449219 1341.730469 Z M 1209.449219 1209.449219 "/>
<path style=" stroke:none;fill-rule:nonzero;fill:rgb(100%,100%,100%);fill-opacity:1;" d="M 1308.660156 1275.589844 L 1341.730469 1275.589844 L 1341.730469 1308.660156 L 1308.660156 1308.660156 Z M 1308.660156 1275.589844 "/>
<path style=" stroke:none;fill-rule:nonzero;fill:rgb(100%,100%,100%);fill-opacity:1;" d="M 1275.589844 1308.660156 L 1308.660156 1308.660156 L 1308.660156 1341.730469 L 1275.589844 1341.730469 Z M 1275.589844 1308.660156 "/>
<path style=" stroke:none;fill-rule:nonzero;fill:rgb(0%,0%,0%);fill-opacity:1;" d="M 1209.449219 1209.449219 Z M 1062.992188 1488.1875 L 1488.1875 1488.1875 L 1488.1875 1913.382812 L 1062.992188 1913.382812 Z M 1062.992188 1488.1875 "/>
<path style=" stroke:none;fill-rule:nonzero;fill:rgb(0%,0%,0%);fill-opacity:1;" d="M 1176.378906 2026.773438 L 1374.804688 2026.773438 L 1374.804688 2225.199219 L 1176.378906 2225.199219 Z M 1176.378906 2026.773438 "/>
<path style=" stroke:none;fill-rule:nonzero;fill:rgb(100%,100%,100%);fill-opacity:1;" d="M 1275.589844 2059.84375 L 1308.660156 2059.84375 L 1308.660156 2125.984375 L 1341.730469 2125.984375 L 1341.730469 2159.054688 L 1308.660156 2159.054688 L 1308.660156 2192.125 L 1209.449219 2192.125 L 1209.449219 2159.054688 L 1275.589844 2159.054688 L 1275.589844 2125.984375 L 1242.519531 2125.984375 L 1242.519531 2092.914062 L 1275.589844 2092.914062 Z M 1275.589844 2059.84375 "/>
<path style=" stroke:none;fill-rule:nonzero;fill:rgb(0%,0%,0%);fill-opacity:1;" d="M 1209.449219 2059.84375 Z M 1062.992188 2338.582031 L 1488.1875 2338.582031 L 1488.1875 2763.777344 L 1062.992188 2763.777344 Z M 1062.992188 2338.582031 "/>
<path style=" stroke:none;fill-rule:nonzero;fill:rgb(0%,0%,0%);fill-opacity:1;" d="M 1176.378906 2877.164062 L 1374.804688 2877.164062 L 1374.804688 3075.589844 L 1176.378906 3075.589844 Z M 1176.378906 2877.164062 "/>
<path style=" stroke:none;fill-rule:nonzero;fill:rgb(100%,100%,100%);fill-opacity:1;" d="M 1209.449219 2910.234375 L 1275.589844 2910.234375 L 1275.589844 3042.519531 L 1242.519531 3042.519531 L 1242.519531 3009.449219 L 1209.449219 3009.449219 Z M 1209.449219 2910.234375 "/>
<path style=" stroke:none;fill-rule:nonzero;fill:rgb(100%,100%,100%);fill-opacity:1;" d="M 1308.660156 2976.378906 L 1341.730469 2976.378906 L 1341.730469 3042.519531 L 1308.660156 3042.519531 Z M 1308.660156 2976.378906 "/>
<path style=" stroke:none;fill-rule:nonzero;fill:rgb(0%,0%,0%);fill-opacity:1;" d="M 1209.449219 2910.234375 Z M 1062.992188 3188.976562 L 1488.1875 3188.976562 L 1488.1875 3614.171875 L 1062.992188 3614.171875 Z M 1062.992188 3188.976562 "/>
<path style=" stroke:none;fill-rule:nonzero;fill:rgb(0%,0%,0%);fill-opacity:1;" d="M 1176.378906 3727.558594 L 1374.804688 3727.558594 L 1374.804688 3925.984375 L 1176.378906 3925.984375 Z M 1176.378906 3727.558594 "/>
<path style=" stroke:none;fill-rule:nonzero;fill:rgb(100%,100%,100%);fill-opacity:1;" d="M 1275.589844 3760.628906 L 1341.730469 3760.628906 L 1341.730469 3793.699219 L 1275.589844 3793.699219 Z M 1275.589844 3760.628906 "/>
<path style=" stroke:none;fill-rule:nonzero;fill:rgb(100%,100%,100%);fill-opacity:1;" d="M 1242.519531 3793.699219 L 1275.589844 3793.699219 L 1275.589844 3826.773438 L 1308.660156 3826.773438 L 1308.660156 3859.84375 L 1341.730469 3859.84375 L 1341.730469 3892.914062 L 1209.449219 3892.914062 L 1209.449219 3859.84375 L 1242.519531 3859.84375 Z M 1242.519531 3793.699219 "/>
<path style=" stroke:none;fill-rule:nonzero;fill:rgb(0%,0%,0%);fill-opacity:1;" d="M 1209.449219 3760.628906 Z M 1062.992188 4039.371094 L 1488.1875 4039.371094 L 1488.1875 4464.566406 L 1062.992188 4464.566406 Z M 1062.992188 4039.371094 "/>
<path style=" stroke:none;fill-rule:nonzero;fill:rgb(0%,0%,0%);fill-opacity:1;" d="M 1176.378906 4577.953125 L 1374.804688 4577.953125 L 1374.804688 4776.378906 L 1176.378906 4776.378906 Z M 1176.378906 4577.953125 "/>
<path style=" stroke:none;fill-rule:nonzero;fill:rgb(100%,100%,100%);fill-opacity:1;" d="M 1308.660156 4611.023438 L 1341.730469 4611.023438 L 1341.730469 4644.09375 L 1308.660156 4644.09375 Z M 1308.660156 4611.023438 "/>
<path style=" stroke:none;fill-rule:nonzero;fill:rgb(100%,100%,100%);fill-opacity:1;" d="M 1209.449219 4644.09375 L 1242.519531 4644.09375 L 1242.519531 4677.164062 L 1209.449219 4677.164062 Z M 1209.449219 4644.09375 "/>
<path style=" stroke:none;fill-rule:nonzero;fill:rgb(100%,100%,100%);fill-opacity:1;" d="M 1242.519531 4677.164062 L 1341.730469 4677.164062 L 1341.730469 4743.308594 L 1308.660156 4743.308594 L 1308.660156 4710.234375 L 1275.589844 4710.234375 L 1275.589844 4743.308594 L 1242.519531 4743.308594 Z M 1242.519531 4677.164062 "/>
<path style=" stroke:none;fill-rule:nonzero;fill:rgb(0%,0%,0%);fill-opacity:1;" d="M 1209.449219 4611.023438 Z M 1062.992188 4889.765625 L 1488.1875 4889.765625 L 1488.1875 5314.960938 L 1062.992188 5314.960938 Z M 1062.992188 4889.765625 "/>
<path style=" stroke:none;fill-rule:nonzero;fill:rgb(0%,0%,0%);fill-opacity:1;" d="M 1488.1875 212.597656 L 1913.382812 212.597656 L 1913.382812 637.792969 L 1488.1875 637.792969 Z M 1488.1875 212.597656 "/>
<path style=" stroke:none;fill-rule:nonzero;fill:rgb(0%,0%,0%);fill-opacity:1;" d="M 1601.574219 751.179688 L 1800 751.179688 L 1800 949.605469 L 1601.574219 949.605469 Z M 1601.574219 751.179688 "/>
<path style=" stroke:none;fill-rule:nonzero;fill:rgb(100%,100%,100%);fill-opacity:1;" d="M 1667.714844 784.253906 L 1766.929688 784.253906 L 1766.929688 850.394531 L 1733.859375 850.394531 L 1733.859375 817.324219 L 1667.714844 817.324219 Z M 1667.714844 784.253906 "/>
<path style=" stroke:none;fill-rule:nonzero;fill:rgb(100%,100%,100%);fill-opacity:1;" d="M 1634.644531 817.324219 L 1667.714844 817.324219 L 1667.714844 850.394531 L 1700.789062 850.394531 L 1700.789062 916.535156 L 1634.644531 916.535156 Z M 1634.644531 817.324219 "/>
<path style=" stroke:none;fill-rule:nonzero;fill:rgb(100%,100%,100%);fill-opacity:1;" d="M 1733.859375 883.464844 L 1766.929688 883.464844 L 1766.929688 916.535156 L 1733.859375 916.535156 Z M 1733.859375 883.464844 "/>
<path style=" stroke:none;fill-rule:nonzero;fill:rgb(0%,0%,0%);fill-opacity:1;" d="M 1634.644531 784.253906 Z M 1488.1875 1062.992188 L 1913.382812 1062.992188 L 1913.382812 1488.1875 L 1488.1875 1488.1875 Z M 1488.1875 1062.992188 "/>
<path style=" stroke:none;fill-rule:nonzero;fill:rgb(0%,0%,0%);fill-opacity:1;" d="M 1601.574219 1601.574219 L 1800 1601.574219 L 1800 1800 L 1601.574219 1800 Z M 1601.574219 1601.574219 "/>
<path style=" stroke:none;fill-rule:nonzero;fill:rgb(100%,100%,100%);fill-opacity:1;" d="M 1634.644531 1667.714844 L 1733.859375 1667.714844 L 1733.859375 1700.789062 L 1766.929688 1700.789062 L 1766.929688 1766.929688 L 1667.714844 1766.929688 L 1667.714844 1733.859375 L 1700.789062 1733.859375 L 1700.789062 1700.789062 L 1667.714844 1700.789062 L 1667.714844 1733.859375 L 1634.644531 1733.859375 Z M 1634.644531 1667.714844 "/>
<path style=" stroke:none;fill-rule:nonzero;fill:rgb(0%,0%,0%);fill-opacity:1;" d="M 1634.644531 1634.644531 Z M 1488.1875 1913.386719 L 1913.382812 1913.386719 L 1913.382812 2338.582031 L 1488.1875 2338.582031 Z M 1488.1875 1913.386719 "/>
<path style=" stroke:none;fill-rule:nonzero;fill:rgb(0%,0%,0%);fill-opacity:1;" d="M 1601.574219 2451.96875 L 1800 2451.96875 L 1800 2650.394531 L 1601.574219 2650.394531 Z M 1601.574219 2451.96875 "/>
<path style=" stroke:none;fill-rule:nonzero;fill:rgb(100%,100%,100%);fill-opacity:1;" d="M 1667.714844 2485.039062 L 1766.929688 2485.039062 L 1766.929688 2518.109375 L 1733.859375 2518.109375 L 1733.859375 2584.253906 L 1766.929688 2584.253906 L 1766.929688 2617.324219 L 1634.644531 2617.324219 L 1634.644531 2551.179688 L 1667.714844 2551.179688 L 1667.714844 2584.253906 L 1700.789062 2584.253906 L 1700.789062 2551.179688 L 1667.714844 2551.179688 Z M 1667.714844 2485.039062 "/>
<path style=" stroke:none;fill-rule:nonzero;fill:rgb(0%,0%,0%);fill-opacity:1;" d="M 1634.644531 2485.039062 Z M 1488.1875 2763.78125 L 1913.382812 2763.78125 L 1913.382812 3188.976562 L 1488.1875 3188.976562 Z M 1488.1875 2763.78125 "/>
<path style=" stroke:none;fill-rule:nonzero;fill:rgb(0%,0%,0%);fill-opacity:1;" d="M 1601.574219 3302.363281 L 1800 3302.363281 L 1800 3500.789062 L 1601.574219 3500.789062 Z M 1601.574219 3302.363281 "/>
<path style=" stroke:none;fill-rule:nonzero;fill:rgb(100%,100%,100%);fill-opacity:1;" d="M 1634.644531 3335.433594 L 1667.714844 3335.433594 L 1667.714844 3368.503906 L 1700.789062 3368.503906 L 1700.789062 3401.574219 L 1733.859375 3401.574219 L 1733.859375 3434.644531 L 1700.789062 3434.644531 L 1700.789062 3467.714844 L 1667.714844 3467.714844 L 1667.714844 3434.644531 L 1634.644531 3434.644531 Z M 1634.644531 3335.433594 "/>
<path style=" stroke:none;fill-rule:nonzero;fill:rgb(100%,100%,100%);fill-opacity:1;" d="M 1700.789062 3335.433594 L 1733.859375 3335.433594 L 1733.859375 3368.503906 L 1700.789062 3368.503906 Z M 1700.789062 3335.433594 "/>
<path style=" stroke:none;fill-rule:nonzero;fill:rgb(0%,0%,0%);fill-opacity:1;" d="M 1634.644531 3335.433594 Z M 1488.1875 3614.171875 L 1913.382812 3614.171875 L 1913.382812 4039.367188 L 1488.1875 4039.367188 Z M 1488.1875 3614.171875 "/>
<path style=" stroke:none;fill-rule:nonzero;fill:rgb(0%,0%,0%);fill-opacity:1;" d="M 1601.574219 4152.757812 L 1800 4152.757812 L 1800 4351.183594 L 1601.574219 4351.183594 Z M 1601.574219 4152.757812 "/>
<path style=" stroke:none;fill-rule:nonzero;fill:rgb(100%,100%,100%);fill-opacity:1;" d="M 1634.644531 4185.828125 L 1766.929688 4185.828125 L 1766.929688 4218.898438 L 1634.644531 4218.898438 Z M 1634.644531 4185.828125 "/>
<path style=" stroke:none;fill-rule:nonzero;fill:rgb(100%,100%,100%);fill-opacity:1;" d="M 1634.644531 4251.96875 L 1700.789062 4251.96875 L 1700.789062 4285.039062 L 1667.714844 4285.039062 L 1667.714844 4318.109375 L 1634.644531 4318.109375 Z M 1634.644531 4251.96875 "/>
<path style=" stroke:none;fill-rule:nonzero;fill:rgb(100%,100%,100%);fill-opacity:1;" d="M 1700.789062 4285.039062 L 1766.929688 4285.039062 L 1766.929688 4318.109375 L 1700.789062 4318.109375 Z M 1700.789062 4285.039062 "/>
<path style=" stroke:none;fill-rule:nonzero;fill:rgb(0%,0%,0%);fill-opacity:1;" d="M 1634.644531 4185.828125 Z M 1488.1875 4464.566406 L 1913.382812 4464.566406 L 1913.382812 4889.761719 L 1488.1875 4889.761719 Z M 1488.1875 4464.566406 "/>
<path style=" stroke:none;fill-rule:nonzero;fill:rgb(0%,0%,0%);fill-opacity:1;" d="M 1601.574219 5003.148438 L 1800 5003.148438 L 1800 5201.574219 L 1601.574219 5201.574219 Z M 1601.574219 5003.148438 "/>
<path style=" stroke:none;fill-rule:nonzero;fill:rgb(100%,100%,100%);fill-opacity:1;" d="M 1733.859375 5036.21875 L 1766.929688 5036.21875 L 1766.929688 5135.433594 L 1733.859375 5135.433594 L 1733.859375 5102.363281 L 1667.714844 5102.363281 L 1667.714844 5069.292969 L 1733.859375 5069.292969 Z M 1733.859375 5036.21875 "/>
<path style=" stroke:none;fill-rule:nonzero;fill:rgb(100%,100%,100%);fill-opacity:1;" d="M 1634.644531 5135.433594 L 1667.714844 5135.433594 L 1667.714844 5168.503906 L 1634.644531 5168.503906 Z M 1634.644531 5135.433594 "/>
<path style=" stroke:none;fill-rule:nonzero;fill:rgb(0%,0%,0%);fill-opacity:1;" d="M 1634.644531 5036.21875 Z M 2026.773438 325.984375 L 2225.199219 325.984375 L 2225.199219 524.410156 L 2026.773438 524.410156 Z M 2026.773438 325.984375 "/>
<path style=" stroke:none;fill-rule:nonzero;fill:rgb(100%,100%,100%);fill-opacity:1;" d="M 2125.984375 359.054688 L 2192.125 359.054688 L 2192.125 425.195312 L 2159.054688 425.195312 L 2159.054688 458.269531 L 2125.984375 458.269531 Z M 2125.984375 359.054688 "/>
<path style=" stroke:none;fill-rule:nonzero;fill:rgb(100%,100%,100%);fill-opacity:1;" d="M 2059.84375 458.269531 L 2125.984375 458.269531 L 2125.984375 491.339844 L 2059.84375 491.339844 Z M 2059.84375 458.269531 "/>
<path style=" stroke:none;fill-rule:nonzero;fill:rgb(100%,100%,100%);fill-opacity:1;" d="M 2159.054688 458.269531 L 2192.125 458.269531 L 2192.125 491.339844 L 2159.054688 491.339844 Z M 2159.054688 458.269531 "/>
<path style=" stroke:none;fill-rule:nonzero;fill:rgb(0%,0%,0%);fill-opacity:1;" d="M 2059.84375 359.054688 Z M 1913.386719 637.796875 L 2338.582031 637.796875 L 2338.582031 1062.992188 L 1913.386719 1062.992188 Z M 1913.386719 637.796875 "/>
<path style=" stroke:none;fill-rule:nonzero;fill:rgb(0%,0%,0%);fill-opacity:1;" d="M 2026.773438 1176.378906 L 2225.199219 1176.378906 L 2225.199219 1374.804688 L 2026.773438 1374.804688 Z M 2026.773438 1176.378906 "/>
<path style=" stroke:none;fill-rule:nonzero;fill:rgb(100%,100%,100%);fill-opacity:1;" d="M 2059.84375 1209.449219 L 2125.984375 1209.449219 L 2125.984375 1242.519531 L 2192.125 1242.519531 L 2192.125 1308.660156 L 2159.054688 1308.660156 L 2159.054688 1275.589844 L 2125.984375 1275.589844 L 2125.984375 1308.660156 L 2159.054688 1308.660156 L 2159.054688 1341.730469 L 2092.914062 1341.730469 L 2092.914062 1275.589844 L 2059.84375 1275.589844 Z M 2059.84375 1209.449219 "/>
<path style=" stroke:none;fill-rule:nonzero;fill:rgb(0%,0%,0%);fill-opacity:1;" d="M 2059.84375 1209.449219 Z M 1913.386719 1488.1875 L 2338.582031 1488.1875 L 2338.582031 1913.382812 L 1913.386719 1913.382812 Z M 1913.386719 1488.1875 "/>
<path style=" stroke:none;fill-rule:nonzero;fill:rgb(0%,0%,0%);fill-opacity:1;" d="M 2026.773438 2026.773438 L 2225.199219 2026.773438 L 2225.199219 2225.199219 L 2026.773438 2225.199219 Z M 2026.773438 2026.773438 "/>
<path style=" stroke:none;fill-rule:nonzero;fill:rgb(100%,100%,100%);fill-opacity:1;" d="M 2092.914062 2059.84375 L 2125.984375 2059.84375 L 2125.984375 2092.914062 L 2159.054688 2092.914062 L 2159.054688 2159.054688 L 2125.984375 2159.054688 L 2125.984375 2192.125 L 2092.914062 2192.125 Z M 2092.914062 2059.84375 "/>
<path style=" stroke:none;fill-rule:nonzero;fill:rgb(100%,100%,100%);fill-opacity:1;" d="M 2159.054688 2159.054688 L 2192.125 2159.054688 L 2192.125 2192.125 L 2159.054688 2192.125 Z M 2159.054688 2159.054688 "/>
<path style=" stroke:none;fill-rule:nonzero;fill:rgb(0%,0%,0%);fill-opacity:1;" d="M 2059.84375 2059.84375 Z M 1913.386719 2338.582031 L 2338.582031 2338.582031 L 2338.582031 2763.777344 L 1913.386719 2763.777344 Z M 1913.386719 2338.582031 "/>
<path style=" stroke:none;fill-rule:nonzero;fill:rgb(0%,0%,0%);fill-opacity:1;" d="M 2026.773438 2877.164062 L 2225.199219 2877.164062 L 2225.199219 3075.589844 L 2026.773438 3075.589844 Z M 2026.773438 2877.164062 "/>
<path style=" stroke:none;fill-rule:nonzero;fill:rgb(100%,100%,100%);fill-opacity:1;" d="M 2059.84375 2910.234375 L 2125.984375 2910.234375 L 2125.984375 2976.378906 L 2092.914062 2976.378906 L 2092.914062 3009.449219 L 2059.84375 3009.449219 Z M 2059.84375 2910.234375 "/>
<path style=" stroke:none;fill-rule:nonzero;fill:rgb(100%,100%,100%);fill-opacity:1;" d="M 2159.054688 2910.234375 L 2192.125 2910.234375 L 2192.125 2976.378906 L 2159.054688 2976.378906 Z M 2159.054688 2910.234375 "/>
<path style=" stroke:none;fill-rule:nonzero;fill:rgb(100%,100%,100%);fill-opacity:1;" d="M 2125.984375 3009.449219 L 2159.054688 3009.449219 L 2159.054688 3042.519531 L 2125.984375 3042.519531 Z M 2125.984375 3009.449219 "/>
<path style=" stroke:none;fill-rule:nonzero;fill:rgb(0%,0%,0%);fill-opacity:1;" d="M 2059.84375 2910.234375 Z M 1913.386719 3188.976562 L 2338.582031 3188.976562 L 2338.582031 3614.171875 L 1913.386719 3614.171875 Z M 1913.386719 3188.976562 "/>
<path style=" stroke:none;fill-rule:nonzero;fill:rgb(0%,0%,0%);fill-opacity:1;" d="M 2026.773438 3727.558594 L 2225.199219 3727.558594 L 2225.199219 3925.984375 L 2026.773438 3925.984375 Z M 2026.773438 3727.558594 "/>
<path style=" stroke:none;fill-rule:nonzero;fill:rgb(100%,100%,100%);fill-opacity:1;" d="M 2092.914062 3760.628906 L 2125.984375 3760.628906 L 2125.984375 3826.773438 L 2092.914062 3826.773438 Z M 2092.914062 3760.628906 "/>
<path style=" stroke:none;fill-rule:nonzero;fill:rgb(100%,100%,100%);fill-opacity:1;" d="M 2159.054688 3826.773438 L 2192.125 3826.773438 L 2192.125 3892.914062 L 2159.054688 3892.914062 Z M 2159.054688 3826.773438 "/>
<path style=" stroke:none;fill-rule:nonzero;fill:rgb(100%,100%,100%);fill-opacity:1;" d="M 2092.914062 3859.84375 L 2125.984375 3859.84375 L 2125.984375 3892.914062 L 2092.914062 3892.914062 Z M 2092.914062 3859.84375 "/>
<path style=" stroke:none;fill-rule:nonzero;fill:rgb(0%,0%,0%);fill-opacity:1;" d="M 2059.84375 3760.628906 Z M 1913.386719 4039.371094 L 2338.582031 4039.371094 L 2338.582031 4464.566406 L 1913.386719 4464.566406 Z M 1913.386719 4039.371094 "/>
<path style=" stroke:none;fill-rule:nonzero;fill:rgb(0%,0%,0%);fill-opacity:1;" d="M 2026.773438 4577.953125 L 2225.199219 4577.953125 L 2225.199219 4776.378906 L 2026.773438 4776.378906 Z M 2026.773438 4577.953125 "/>
<path style=" stroke:none;fill-rule:nonzero;fill:rgb(100%,100%,100%);fill-opacity:1;" d="M 2092.914062 4644.09375 L 2125.984375 4644.09375 L 2125.984375 4677.164062 L 2192.125 4677.164062 L 2192.125 4743.308594 L 2059.84375 4743.308594 L 2059.84375 4677.164062 L 2092.914062 4677.164062 Z M 2092.914062 4644.09375 "/>
<path style=" stroke:none;fill-rule:nonzero;fill:rgb(0%,0%,0%);fill-opacity:1;" d="M 2059.84375 4611.023438 Z M 1913.386719 4889.765625 L 2338.582031 4889.765625 L 2338.582031 5314.960938 L 1913.386719 5314.960938 Z M 1913.386719 4889.765625 "/>
<path style=" stroke:none;fill-rule:nonzero;fill:rgb(0%,0%,0%);fill-opacity:1;" d="M 2338.582031 212.597656 L 2763.777344 212.597656 L 2763.777344 637.792969 L 2338.582031 637.792969 Z M 2338.582031 212.597656 "/>
<path style=" stroke:none;fill-rule:nonzero;fill:rgb(0%,0%,0%);fill-opacity:1;" d="M 2451.96875 751.179688 L 2650.394531 751.179688 L 2650.394531 949.605469 L 2451.96875 949.605469 Z M 2451.96875 751.179688 "/>
<path style=" stroke:none;fill-rule:nonzero;fill:rgb(100%,100%,100%);fill-opacity:1;" d="M 2485.039062 784.253906 L 2518.109375 784.253906 L 2518.109375 817.324219 L 2584.253906 817.324219 L 2584.253906 916.535156 L 2485.039062 916.535156 L 2485.039062 883.464844 L 2551.179688 883.464844 L 2551.179688 850.394531 L 2485.039062 850.394531 Z M 2485.039062 784.253906 "/>
<path style=" stroke:none;fill-rule:nonzero;fill:rgb(100%,100%,100%);fill-opacity:1;" d="M 2584.253906 784.253906 L 2617.324219 784.253906 L 2617.324219 817.324219 L 2584.253906 817.324219 Z M 2584.253906 784.253906 "/>
<path style=" stroke:none;fill-rule:nonzero;fill:rgb(0%,0%,0%);fill-opacity:1;" d="M 2485.039062 784.253906 Z M 2338.582031 1062.992188 L 2763.777344 1062.992188 L 2763.777344 1488.1875 L 2338.582031 1488.1875 Z M 2338.582031 1062.992188 "/>
<path style=" stroke:none;fill-rule:nonzero;fill:rgb(0%,0%,0%);fill-opacity:1;" d="M 2451.96875 1601.574219 L 2650.394531 1601.574219 L 2650.394531 1800 L 2451.96875 1800 Z M 2451.96875 1601.574219 "/>
<path style=" stroke:none;fill-rule:nonzero;fill:rgb(100%,100%,100%);fill-opacity:1;" d="M 2551.179688 1634.644531 L 2584.253906 1634.644531 L 2584.253906 1700.789062 L 2551.179688 1700.789062 Z M 2551.179688 1634.644531 "/>
<path style=" stroke:none;fill-rule:nonzero;fill:rgb(100%,100%,100%);fill-opacity:1;" d="M 2485.039062 1667.714844 L 2518.109375 1667.714844 L 2518.109375 1700.789062 L 2485.039062 1700.789062 Z M 2485.039062 1667.714844 "/>
<path style=" stroke:none;fill-rule:nonzero;fill:rgb(100%,100%,100%);fill-opacity:1;" d="M 2485.039062 1733.859375 L 2617.324219 1733.859375 L 2617.324219 1766.929688 L 2485.039062 1766.929688 Z M 2485.039062 1733.859375 "/>
<path style=" stroke:none;fill-rule:nonzero;fill:rgb(0%,0%,0%);fill-opacity:1;" d="M 2485.039062 1634.644531 Z M 2338.582031 1913.386719 L 2763.777344 1913.386719 L 2763.777344 2338.582031 L 2338.582031 2338.582031 Z M 2338.582031 1913.386719 "/>
<path style=" stroke:none;fill-rule:nonzero;fill:rgb(0%,0%,0%);fill-opacity:1;" d="M 2451.96875 2451.96875 L 2650.394531 2451.96875 L 2650.394531 2650.394531 L 2451.96875 2650.394531 Z M 2451.96875 2451.96875 "/>
<path style=" stroke:none;fill-rule:nonzero;fill:rgb(100%,100%,100%);fill-opacity:1;" d="M 2485.039062 2485.039062 L 2518.109375 2485.039062 L 2518.109375 2518.109375 L 2485.039062 2518.109375 Z M 2485.039062 2485.039062 "/>
<path style=" stroke:none;fill-rule:nonzero;fill:rgb(100%,100%,100%);fill-opacity:1;" d="M 2518.109375 2518.109375 L 2584.253906 2518.109375 L 2584.253906 2551.179688 L 2518.109375 2551.179688 Z M 2518.109375 2518.109375 "/>
<path style=" stroke:none;fill-rule:nonzero;fill:rgb(100%,100%,100%);fill-opacity:1;" d="M 2485.039062 2551.179688 L 2518.109375 2551.179688 L 2518.109375 2617.324219 L 2485.039062 2617.324219 Z M 2485.039062 2551.179688 "/>
<path style=" stroke:none;fill-rule:nonzero;fill:rgb(100%,100%,100%);fill-opacity:1;" d="M 2551.179688 2584.253906 L 2617.324219 2584.253906 L 2617.324219 2617.324219 L 2551.179688 2617.324219 Z M 2551.179688 2584.253906 "/>
<path style=" stroke:none;fill-rule:nonzero;fill:rgb(0%,0%,0%);fill-opacity:1;" d="M 2485.039062 2485.039062 Z M 2338.582031 2763.78125 L 2763.777344 2763.78125 L 2763.777344 3188.976562 L 2338.582031 3188.976562 Z M 2338.582031 2763.78125 "/>
<path style=" stroke:none;fill-rule:nonzero;fill:rgb(0%,0%,0%);fill-opacity:1;" d="M 2451.96875 3302.363281 L 2650.394531 3302.363281 L 2650.394531 3500.789062 L 2451.96875 3500.789062 Z M 2451.96875 3302.363281 "/>
<path style=" stroke:none;fill-rule:nonzero;fill:rgb(100%,100%,100%);fill-opacity:1;" d="M 2485.039062 3335.433594 L 2518.109375 3335.433594 L 2518.109375 3368.503906 L 2485.039062 3368.503906 Z M 2485.039062 3335.433594 "/>
<path style=" stroke:none;fill-rule:nonzero;fill:rgb(100%,100%,100%);fill-opacity:1;" d="M 2551.179688 3335.433594 L 2584.253906 3335.433594 L 2584.253906 3368.503906 L 2551.179688 3368.503906 Z M 2551.179688 3335.433594 "/>
<path style=" stroke:none;fill-rule:nonzero;fill:rgb(100%,100%,100%);fill-opacity:1;" d="M 2518.109375 3368.503906 L 2551.179688 3368.503906 L 2551.179688 3467.714844 L 2518.109375 3467.714844 Z M 2518.109375 3368.503906 "/>
<path style=" stroke:none;fill-rule:nonzero;fill:rgb(100%,100%,100%);fill-opacity:1;" d="M 2584.253906 3368.503906 L 2617.324219 3368.503906 L 2617.324219 3434.644531 L 2584.253906 3434.644531 Z M 2584.253906 3368.503906 "/>
<path style=" stroke:none;fill-rule:nonzero;fill:rgb(0%,0%,0%);fill-opacity:1;" d="M 2485.039062 3335.433594 Z M 2338.582031 3614.171875 L 2763.777344 3614.171875 L 2763.777344 4039.367188 L 2338.582031 4039.367188 Z M 2338.582031 3614.171875 "/>
<path style=" stroke:none;fill-rule:nonzero;fill:rgb(0%,0%,0%);fill-opacity:1;" d="M 2451.96875 4152.757812 L 2650.394531 4152.757812 L 2650.394531 4351.183594 L 2451.96875 4351.183594 Z M 2451.96875 4152.757812 "/>
<path style=" stroke:none;fill-rule:nonzero;fill:rgb(100%,100%,100%);fill-opacity:1;" d="M 2485.039062 4218.898438 L 2518.109375 4218.898438 L 2518.109375 4285.039062 L 2551.179688 4285.039062 L 2551.179688 4251.96875 L 2584.253906 4251.96875 L 2584.253906 4318.109375 L 2485.039062 4318.109375 Z M 2485.039062 4218.898438 "/>
<path style=" stroke:none;fill-rule:nonzero;fill:rgb(0%,0%,0%);fill-opacity:1;" d="M 2485.039062 4185.828125 Z M 2338.582031 4464.566406 L 2763.777344 4464.566406 L 2763.777344 4889.761719 L 2338.582031 4889.761719 Z M 2338.582031 4464.566406 "/>
<path style=" stroke:none;fill-rule:nonzero;fill:rgb(0%,0%,0%);fill-opacity:1;" d="M 2451.96875 5003.148438 L 2650.394531 5003.148438 L 2650.394531 5201.574219 L 2451.96875 5201.574219 Z M 2451.96875 5003.148438 "/>
<path style=" stroke:none;fill-rule:nonzero;fill:rgb(100%,100%,100%);fill-opacity:1;" d="M 2551.179688 5036.21875 L 2584.253906 5036.21875 L 2584.253906 5135.433594 L 2551.179688 5135.433594 Z M 2551.179688 5036.21875 "/>
<path style=" stroke:none;fill-rule:nonzero;fill:rgb(100%,100%,100%);fill-opacity:1;" d="M 2485.039062 5069.292969 L 2518.109375 5069.292969 L 2518.109375 5102.363281 L 2485.039062 5102.363281 Z M 2485.039062 5069.292969 "/>
<path style=" stroke:none;fill-rule:nonzero;fill:rgb(100%,100%,100%);fill-opacity:1;" d="M 2485.039062 5135.433594 L 2518.109375 5135.433594 L 2518.109375 5168.503906 L 2485.039062 5168.503906 Z M 2485.039062 5135.433594 "/>
<path style=" stroke:none;fill-rule:nonzero;fill:rgb(0%,0%,0%);fill-opacity:1;" d="M 2485.039062 5036.21875 Z M 2877.164062 325.984375 L 3075.589844 325.984375 L 3075.589844 524.410156 L 2877.164062 524.410156 Z M 2877.164062 325.984375 "/>
<path style=" stroke:none;fill-rule:nonzero;fill:rgb(100%,100%,100%);fill-opacity:1;" d="M 2910.234375 359.054688 L 2943.308594 359.054688 L 2943.308594 425.195312 L 2910.234375 425.195312 Z M 2910.234375 359.054688 "/>
<path style=" stroke:none;fill-rule:nonzero;fill:rgb(100%,100%,100%);fill-opacity:1;" d="M 3009.449219 359.054688 L 3042.519531 359.054688 L 3042.519531 425.195312 L 3009.449219 425.195312 Z M 3009.449219 359.054688 "/>
<path style=" stroke:none;fill-rule:nonzero;fill:rgb(100%,100%,100%);fill-opacity:1;" d="M 2943.308594 425.195312 L 2976.378906 425.195312 L 2976.378906 458.269531 L 3009.449219 458.269531 L 3009.449219 491.339844 L 2943.308594 491.339844 Z M 2943.308594 425.195312 "/>
<path style=" stroke:none;fill-rule:nonzero;fill:rgb(0%,0%,0%);fill-opacity:1;" d="M 2910.234375 359.054688 Z M 2763.78125 637.796875 L 3188.976562 637.796875 L 3188.976562 1062.992188 L 2763.78125 1062.992188 Z M 2763.78125 637.796875 "/>
<path style=" stroke:none;fill-rule:nonzero;fill:rgb(0%,0%,0%);fill-opacity:1;" d="M 2877.164062 1176.378906 L 3075.589844 1176.378906 L 3075.589844 1374.804688 L 2877.164062 1374.804688 Z M 2877.164062 1176.378906 "/>
<path style=" stroke:none;fill-rule:nonzero;fill:rgb(100%,100%,100%);fill-opacity:1;" d="M 2910.234375 1209.449219 L 3042.519531 1209.449219 L 3042.519531 1341.730469 L 3009.449219 1341.730469 L 3009.449219 1242.519531 L 2943.308594 1242.519531 L 2943.308594 1308.660156 L 2910.234375 1308.660156 Z M 2910.234375 1209.449219 "/>
<path style=" stroke:none;fill-rule:nonzero;fill:rgb(0%,0%,0%);fill-opacity:1;" d="M 2910.234375 1209.449219 Z M 2763.78125 1488.1875 L 3188.976562 1488.1875 L 3188.976562 1913.382812 L 2763.78125 1913.382812 Z M 2763.78125 1488.1875 "/>
<path style=" stroke:none;fill-rule:nonzero;fill:rgb(0%,0%,0%);fill-opacity:1;" d="M 2877.164062 2026.773438 L 3075.589844 2026.773438 L 3075.589844 2225.199219 L 2877.164062 2225.199219 Z M 2877.164062 2026.773438 "/>
<path style=" stroke:none;fill-rule:nonzero;fill:rgb(100%,100%,100%);fill-opacity:1;" d="M 2943.308594 2059.84375 L 3009.449219 2059.84375 L 3009.449219 2125.984375 L 2943.308594 2125.984375 Z M 2943.308594 2059.84375 "/>
<path style=" stroke:none;fill-rule:nonzero;fill:rgb(0%,0%,0%);fill-opacity:1;" d="M 2910.234375 2059.84375 Z M 2763.78125 2338.582031 L 3188.976562 2338.582031 L 3188.976562 2763.777344 L 2763.78125 2763.777344 Z M 2763.78125 2338.582031 "/>
<path style=" stroke:none;fill-rule:nonzero;fill:rgb(0%,0%,0%);fill-opacity:1;" d="M 2877.164062 2877.164062 L 3075.589844 2877.164062 L 3075.589844 3075.589844 L 2877.164062 3075.589844 Z M 2877.164062 2877.164062 "/>
<path style=" stroke:none;fill-rule:nonzero;fill:rgb(100%,100%,100%);fill-opacity:1;" d="M 2910.234375 2910.234375 L 3042.519531 2910.234375 L 3042.519531 2943.308594 L 3009.449219 2943.308594 L 3009.449219 2976.378906 L 2976.378906 2976.378906 L 2976.378906 3009.449219 L 3042.519531 3009.449219 L 3042.519531 3042.519531 L 2943.308594 3042.519531 L 2943.308594 2976.378906 L 2910.234375 2976.378906 Z M 2910.234375 2910.234375 "/>
<path style=" stroke:none;fill-rule:nonzero;fill:rgb(0%,0%,0%);fill-opacity:1;" d="M 2910.234375 2910.234375 Z M 2763.78125 3188.976562 L 3188.976562 3188.976562 L 3188.976562 3614.171875 L 2763.78125 3614.171875 Z M 2763.78125 3188.976562 "/>
<path style=" stroke:none;fill-rule:nonzero;fill:rgb(0%,0%,0%);fill-opacity:1;" d="M 2877.164062 3727.558594 L 3075.589844 3727.558594 L 3075.589844 3925.984375 L 2877.164062 3925.984375 Z M 2877.164062 3727.558594 "/>
<path style=" stroke:none;fill-rule:nonzero;fill:rgb(100%,100%,100%);fill-opacity:1;" d="M 2943.308594 3760.628906 L 2976.378906 3760.628906 L 2976.378906 3793.699219 L 3009.449219 3793.699219 L 3009.449219 3760.628906 L 3042.519531 3760.628906 L 3042.519531 3859.84375 L 3009.449219 3859.84375 L 3009.449219 3892.914062 L 2976.378906 3892.914062 L 2976.378906 3826.773438 L 2943.308594 3826.773438 Z M 2943.308594 3760.628906 "/>
<path style=" stroke:none;fill-rule:nonzero;fill:rgb(100%,100%,100%);fill-opacity:1;" d="M 2910.234375 3826.773438 L 2943.308594 3826.773438 L 2943.308594 3859.84375 L 2910.234375 3859.84375 Z M 2910.234375 3826.773438 "/>
<path style=" stroke:none;fill-rule:nonzero;fill:rgb(0%,0%,0%);fill-opacity:1;" d="M 2910.234375 3760.628906 Z M 2763.78125 4039.371094 L 3188.976562 4039.371094 L 3188.976562 4464.566406 L 2763.78125 4464.566406 Z M 2763.78125 4039.371094 "/>
<path style=" stroke:none;fill-rule:nonzero;fill:rgb(0%,0%,0%);fill-opacity:1;" d="M 2877.164062 4577.953125 L 3075.589844 4577.953125 L 3075.589844 4776.378906 L 2877.164062 4776.378906 Z M 2877.164062 4577.953125 "/>
<path style=" stroke:none;fill-rule:nonzero;fill:rgb(100%,100%,100%);fill-opacity:1;" d="M 2910.234375 4644.09375 L 2976.378906 4644.09375 L 2976.378906 4677.164062 L 3009.449219 4677.164062 L 3009.449219 4644.09375 L 3042.519531 4644.09375 L 3042.519531 4710.234375 L 3009.449219 4710.234375 L 3009.449219 4743.308594 L 2943.308594 4743.308594 L 2943.308594 4710.234375 L 2910.234375 4710.234375 Z M 2910.234375 4644.09375 "/>
<path style=" stroke:none;fill-rule:nonzero;fill:rgb(0%,0%,0%);fill-opacity:1;" d="M 2910.234375 4611.023438 Z M 2763.78125 4889.765625 L 3188.976562 4889.765625 L 3188.976562 5314.960938 L 2763.78125 5314.960938 Z M 2763.78125 4889.765625 "/>
</g>
</svg>
