<?xml version="1.0" encoding="UTF-8"?>
<svg xmlns="http://www.w3.org/2000/svg" xmlns:xlink="http://www.w3.org/1999/xlink" width="5669.291339pt" height="3968.503937pt" viewBox="0 0 5669.291339 3968.503937" version="1.1">
<g id="surface55">
<path style=" stroke:none;fill-rule:nonzero;fill:rgb(50%,50%,50%);fill-opacity:1;" d="M 0 0 L 5669.292969 0 L 5669.292969 3968.503906 L 0 3968.503906 Z M 0 0 "/>
<path style=" stroke:none;fill-rule:nonzero;fill:rgb(100%,100%,100%);fill-opacity:1;" d="M 283.464844 283.464844 L 5385.828125 283.464844 L 5385.828125 3685.039062 L 283.464844 3685.039062 Z M 283.464844 283.464844 "/>
<path style=" stroke:none;fill-rule:nonzero;fill:rgb(0%,0%,0%);fill-opacity:1;" d="M 460.628906 460.628906 L 956.691406 460.628906 L 956.691406 956.691406 L 460.628906 956.691406 Z M 460.628906 460.628906 "/>
<path style=" stroke:none;fill-rule:nonzero;fill:rgb(100%,100%,100%);fill-opacity:1;" d="M 543.308594 543.308594 L 625.984375 543.308594 L 625.984375 625.984375 L 543.308594 625.984375 Z M 543.308594 543.308594 "/>
<path style=" stroke:none;fill-rule:nonzero;fill:rgb(100%,100%,100%);fill-opacity:1;" d="M 708.660156 543.308594 L 874.015625 543.308594 L 874.015625 791.339844 L 791.339844 791.339844 L 791.339844 874.015625 L 708.660156 874.015625 L 708.660156 708.660156 L 791.339844 708.660156 L 791.339844 625.984375 L 708.660156 625.984375 Z M 708.660156 543.308594 "/>
<path style=" stroke:none;fill-rule:nonzero;fill:rgb(100%,100%,100%);fill-opacity:1;" d="M 625.984375 625.984375 L 708.660156 625.984375 L 708.660156 708.660156 L 625.984375 708.660156 Z M 625.984375 625.984375 "/>
<path style=" stroke:none;fill-rule:nonzero;fill:rgb(0%,0%,0%);fill-opacity:1;" d="M 543.308594 543.308594 Z M 283.464844 1133.859375 L 1133.859375 1133.859375 L 1133.859375 1984.253906 L 283.464844 1984.253906 Z M 283.464844 1133.859375 "/>
<path style=" stroke:none;fill-rule:nonzero;fill:rgb(0%,0%,0%);fill-opacity:1;" d="M 460.628906 2161.417969 L 956.691406 2161.417969 L 956.691406 2657.480469 L 460.628906 2657.480469 Z M 460.628906 2161.417969 "/>
<path style=" stroke:none;fill-rule:nonzero;fill:rgb(100%,100%,100%);fill-opacity:1;" d="M 543.308594 2244.09375 L 625.984375 2244.09375 L 625.984375 2326.773438 L 791.339844 2326.773438 L 791.339844 2574.804688 L 543.308594 2574.804688 L 543.308594 2492.125 L 708.660156 2492.125 L 708.660156 2409.449219 L 543.308594 2409.449219 Z M 543.308594 2244.09375 "/>
<path style=" stroke:none;fill-rule:nonzero;fill:rgb(100%,100%,100%);fill-opacity:1;" d="M 791.339844 2244.09375 L 874.015625 2244.09375 L 874.015625 2326.773438 L 791.339844 2326.773438 Z M 791.339844 2244.09375 "/>
<path style=" stroke:none;fill-rule:nonzero;fill:rgb(0%,0%,0%);fill-opacity:1;" d="M 543.308594 2244.09375 Z M 283.464844 2834.644531 L 1133.859375 2834.644531 L 1133.859375 3685.039062 L 283.464844 3685.039062 Z M 283.464844 2834.644531 "/>
<path style=" stroke:none;fill-rule:nonzero;fill:rgb(0%,0%,0%);fill-opacity:1;" d="M 1133.859375 283.464844 L 1984.253906 283.464844 L 1984.253906 1133.859375 L 1133.859375 1133.859375 Z M 1133.859375 283.464844 "/>
<path style=" stroke:none;fill-rule:nonzero;fill:rgb(0%,0%,0%);fill-opacity:1;" d="M 1311.023438 1311.023438 L 1807.085938 1311.023438 L 1807.085938 1807.085938 L 1311.023438 1807.085938 Z M 1311.023438 1311.023438 "/>
<path style=" stroke:none;fill-rule:nonzero;fill:rgb(100%,100%,100%);fill-opacity:1;" d="M 1393.699219 1393.699219 L 1476.378906 1393.699219 L 1476.378906 1559.054688 L 1393.699219 1559.054688 Z M 1393.699219 1393.699219 "/>
<path style=" stroke:none;fill-rule:nonzero;fill:rgb(100%,100%,100%);fill-opacity:1;" d="M 1641.730469 1393.699219 L 1724.410156 1393.699219 L 1724.410156 1559.054688 L 1641.730469 1559.054688 Z M 1641.730469 1393.699219 "/>
<path style=" stroke:none;fill-rule:nonzero;fill:rgb(100%,100%,100%);fill-opacity:1;" d="M 1476.378906 1559.054688 L 1559.054688 1559.054688 L 1559.054688 1641.730469 L 1641.730469 1641.730469 L 1641.730469 1724.410156 L 1476.378906 1724.410156 Z M 1476.378906 1559.054688 "/>
<path style=" stroke:none;fill-rule:nonzero;fill:rgb(0%,0%,0%);fill-opacity:1;" d="M 1393.699219 1393.699219 Z M 1133.859375 1984.253906 L 1984.253906 1984.253906 L 1984.253906 2834.648438 L 1133.859375 2834.648438 Z M 1133.859375 1984.253906 "/>
<path style=" stroke:none;fill-rule:nonzero;fill:rgb(0%,0%,0%);fill-opacity:1;" d="M 1311.023438 3011.8125 L 1807.085938 3011.8125 L 1807.085938 3507.875 L 1311.023438 3507.875 Z M 1311.023438 3011.8125 "/>
<path style=" stroke:none;fill-rule:nonzero;fill:rgb(100%,100%,100%);fill-opacity:1;" d="M 1393.699219 3094.488281 L 1559.054688 3094.488281 L 1559.054688 3177.164062 L 1724.410156 3177.164062 L 1724.410156 3342.519531 L 1641.730469 3342.519531 L 1641.730469 3259.84375 L 1559.054688 3259.84375 L 1559.054688 3342.519531 L 1641.730469 3342.519531 L 1641.730469 3425.195312 L 1476.378906 3425.195312 L 1476.378906 3259.84375 L 1393.699219 3259.84375 Z M 1393.699219 3094.488281 "/>
<path style=" stroke:none;fill-rule:nonzero;fill:rgb(0%,0%,0%);fill-opacity:1;" d="M 1393.699219 3094.488281 Z M 2161.417969 460.628906 L 2657.480469 460.628906 L 2657.480469 956.691406 L 2161.417969 956.691406 Z M 2161.417969 460.628906 "/>
<path style=" stroke:none;fill-rule:nonzero;fill:rgb(100%,100%,100%);fill-opacity:1;" d="M 2244.09375 625.984375 L 2574.804688 625.984375 L 2574.804688 791.339844 L 2492.125 791.339844 L 2492.125 708.660156 L 2326.773438 708.660156 L 2326.773438 874.015625 L 2244.09375 874.015625 Z M 2244.09375 625.984375 "/>
<path style=" stroke:none;fill-rule:nonzero;fill:rgb(100%,100%,100%);fill-opacity:1;" d="M 2409.449219 791.339844 L 2492.125 791.339844 L 2492.125 874.015625 L 2409.449219 874.015625 Z M 2409.449219 791.339844 "/>
<path style=" stroke:none;fill-rule:nonzero;fill:rgb(0%,0%,0%);fill-opacity:1;" d="M 2244.09375 543.308594 Z M 1984.253906 1133.859375 L 2834.648438 1133.859375 L 2834.648438 1984.253906 L 1984.253906 1984.253906 Z M 1984.253906 1133.859375 "/>
<path style=" stroke:none;fill-rule:nonzero;fill:rgb(0%,0%,0%);fill-opacity:1;" d="M 2161.417969 2161.417969 L 2657.480469 2161.417969 L 2657.480469 2657.480469 L 2161.417969 2657.480469 Z M 2161.417969 2161.417969 "/>
<path style=" stroke:none;fill-rule:nonzero;fill:rgb(100%,100%,100%);fill-opacity:1;" d="M 2244.09375 2244.09375 L 2409.449219 2244.09375 L 2409.449219 2409.449219 L 2574.804688 2409.449219 L 2574.804688 2492.125 L 2492.125 2492.125 L 2492.125 2574.804688 L 2409.449219 2574.804688 L 2409.449219 2492.125 L 2244.09375 2492.125 L 2244.09375 2409.449219 L 2326.773438 2409.449219 L 2326.773438 2326.773438 L 2244.09375 2326.773438 Z M 2244.09375 2244.09375 "/>
<path style=" stroke:none;fill-rule:nonzero;fill:rgb(0%,0%,0%);fill-opacity:1;" d="M 2244.09375 2244.09375 Z M 1984.253906 2834.644531 L 2834.648438 2834.644531 L 2834.648438 3685.039062 L 1984.253906 3685.039062 Z M 1984.253906 2834.644531 "/>
<path style=" stroke:none;fill-rule:nonzero;fill:rgb(0%,0%,0%);fill-opacity:1;" d="M 2834.644531 283.464844 L 3685.039062 283.464844 L 3685.039062 1133.859375 L 2834.644531 1133.859375 Z M 2834.644531 283.464844 "/>
<path style=" stroke:none;fill-rule:nonzero;fill:rgb(0%,0%,0%);fill-opacity:1;" d="M 3011.8125 1311.023438 L 3507.875 1311.023438 L 3507.875 1807.085938 L 3011.8125 1807.085938 Z M 3011.8125 1311.023438 "/>
<path style=" stroke:none;fill-rule:nonzero;fill:rgb(100%,100%,100%);fill-opacity:1;" d="M 3177.164062 1393.699219 L 3259.84375 1393.699219 L 3259.84375 1559.054688 L 3177.164062 1559.054688 Z M 3177.164062 1393.699219 "/>
<path style=" stroke:none;fill-rule:nonzero;fill:rgb(100%,100%,100%);fill-opacity:1;" d="M 3342.519531 1393.699219 L 3425.195312 1393.699219 L 3425.195312 1476.378906 L 3342.519531 1476.378906 Z M 3342.519531 1393.699219 "/>
<path style=" stroke:none;fill-rule:nonzero;fill:rgb(100%,100%,100%);fill-opacity:1;" d="M 3094.488281 1559.054688 L 3177.164062 1559.054688 L 3177.164062 1641.730469 L 3342.519531 1641.730469 L 3342.519531 1724.410156 L 3094.488281 1724.410156 Z M 3094.488281 1559.054688 "/>
<path style=" stroke:none;fill-rule:nonzero;fill:rgb(100%,100%,100%);fill-opacity:1;" d="M 3342.519531 1559.054688 L 3425.195312 1559.054688 L 3425.195312 1641.730469 L 3342.519531 1641.730469 Z M 3342.519531 1559.054688 "/>
<path style=" stroke:none;fill-rule:nonzero;fill:rgb(0%,0%,0%);fill-opacity:1;" d="M 3094.488281 1393.699219 Z M 2834.644531 1984.253906 L 3685.039062 1984.253906 L 3685.039062 2834.648438 L 2834.644531 2834.648438 Z M 2834.644531 1984.253906 "/>
<path style=" stroke:none;fill-rule:nonzero;fill:rgb(0%,0%,0%);fill-opacity:1;" d="M 3011.8125 3011.8125 L 3507.875 3011.8125 L 3507.875 3507.875 L 3011.8125 3507.875 Z M 3011.8125 3011.8125 "/>
<path style=" stroke:none;fill-rule:nonzero;fill:rgb(100%,100%,100%);fill-opacity:1;" d="M 3094.488281 3094.488281 L 3425.195312 3094.488281 L 3425.195312 3425.195312 L 3342.519531 3425.195312 L 3342.519531 3177.164062 L 3177.164062 3177.164062 L 3177.164062 3342.519531 L 3094.488281 3342.519531 Z M 3094.488281 3094.488281 "/>
<path style=" stroke:none;fill-rule:nonzero;fill:rgb(0%,0%,0%);fill-opacity:1;" d="M 3094.488281 3094.488281 Z M 3862.203125 460.628906 L 4358.265625 460.628906 L 4358.265625 956.691406 L 3862.203125 956.691406 Z M 3862.203125 460.628906 "/>
<path style=" stroke:none;fill-rule:nonzero;fill:rgb(100%,100%,100%);fill-opacity:1;" d="M 4110.234375 543.308594 L 4275.589844 543.308594 L 4275.589844 708.660156 L 4192.914062 708.660156 L 4192.914062 791.339844 L 4110.234375 791.339844 Z M 4110.234375 543.308594 "/>
<path style=" stroke:none;fill-rule:nonzero;fill:rgb(100%,100%,100%);fill-opacity:1;" d="M 3944.882812 791.339844 L 4110.234375 791.339844 L 4110.234375 874.015625 L 3944.882812 874.015625 Z M 3944.882812 791.339844 "/>
<path style=" stroke:none;fill-rule:nonzero;fill:rgb(100%,100%,100%);fill-opacity:1;" d="M 4192.914062 791.339844 L 4275.589844 791.339844 L 4275.589844 874.015625 L 4192.914062 874.015625 Z M 4192.914062 791.339844 "/>
<path style=" stroke:none;fill-rule:nonzero;fill:rgb(0%,0%,0%);fill-opacity:1;" d="M 3944.882812 543.308594 Z M 3685.039062 1133.859375 L 4535.433594 1133.859375 L 4535.433594 1984.253906 L 3685.039062 1984.253906 Z M 3685.039062 1133.859375 "/>
<path style=" stroke:none;fill-rule:nonzero;fill:rgb(0%,0%,0%);fill-opacity:1;" d="M 3862.203125 2161.417969 L 4358.265625 2161.417969 L 4358.265625 2657.480469 L 3862.203125 2657.480469 Z M 3862.203125 2161.417969 "/>
<path style=" stroke:none;fill-rule:nonzero;fill:rgb(100%,100%,100%);fill-opacity:1;" d="M 3944.882812 2244.09375 L 4275.589844 2244.09375 L 4275.589844 2326.773438 L 4192.914062 2326.773438 L 4192.914062 2409.449219 L 4110.234375 2409.449219 L 4110.234375 2492.125 L 4027.558594 2492.125 L 4027.558594 2574.804688 L 3944.882812 2574.804688 Z M 3944.882812 2244.09375 "/>
<path style=" stroke:none;fill-rule:nonzero;fill:rgb(100%,100%,100%);fill-opacity:1;" d="M 4192.914062 2409.449219 L 4275.589844 2409.449219 L 4275.589844 2492.125 L 4192.914062 2492.125 Z M 4192.914062 2409.449219 "/>
<path style=" stroke:none;fill-rule:nonzero;fill:rgb(100%,100%,100%);fill-opacity:1;" d="M 4110.234375 2492.125 L 4192.914062 2492.125 L 4192.914062 2574.804688 L 4110.234375 2574.804688 Z M 4110.234375 2492.125 "/>
<path style=" stroke:none;fill-rule:nonzero;fill:rgb(0%,0%,0%);fill-opacity:1;" d="M 3944.882812 2244.09375 Z M 3685.039062 2834.644531 L 4535.433594 2834.644531 L 4535.433594 3685.039062 L 3685.039062 3685.039062 Z M 3685.039062 2834.644531 "/>
<path style=" stroke:none;fill-rule:nonzero;fill:rgb(0%,0%,0%);fill-opacity:1;" d="M 4535.433594 283.464844 L 5385.828125 283.464844 L 5385.828125 1133.859375 L 4535.433594 1133.859375 Z M 4535.433594 283.464844 "/>
<path style=" stroke:none;fill-rule:nonzero;fill:rgb(0%,0%,0%);fill-opacity:1;" d="M 4712.597656 1311.023438 L 5208.660156 1311.023438 L 5208.660156 1807.085938 L 4712.597656 1807.085938 Z M 4712.597656 1311.023438 "/>
<path style=" stroke:none;fill-rule:nonzero;fill:rgb(100%,100%,100%);fill-opacity:1;" d="M 4877.953125 1393.699219 L 5125.984375 1393.699219 L 5125.984375 1559.054688 L 5043.308594 1559.054688 L 5043.308594 1476.378906 L 4877.953125 1476.378906 Z M 4877.953125 1393.699219 "/>
<path style=" stroke:none;fill-rule:nonzero;fill:rgb(100%,100%,100%);fill-opacity:1;" d="M 4795.277344 1476.378906 L 4877.953125 1476.378906 L 4877.953125 1559.054688 L 4960.628906 1559.054688 L 4960.628906 1724.410156 L 4795.277344 1724.410156 Z M 4795.277344 1476.378906 "/>
<path style=" stroke:none;fill-rule:nonzero;fill:rgb(100%,100%,100%);fill-opacity:1;" d="M 5043.308594 1641.730469 L 5125.984375 1641.730469 L 5125.984375 1724.410156 L 5043.308594 1724.410156 Z M 5043.308594 1641.730469 "/>
<path style=" stroke:none;fill-rule:nonzero;fill:rgb(0%,0%,0%);fill-opacity:1;" d="M 4795.277344 1393.699219 Z M 4535.433594 1984.253906 L 5385.828125 1984.253906 L 5385.828125 2834.648438 L 4535.433594 2834.648438 Z M 4535.433594 1984.253906 "/>
<path style=" stroke:none;fill-rule:nonzero;fill:rgb(0%,0%,0%);fill-opacity:1;" d="M 4712.597656 3011.8125 L 5208.660156 3011.8125 L 5208.660156 3507.875 L 4712.597656 3507.875 Z M 4712.597656 3011.8125 "/>
<path style=" stroke:none;fill-rule:nonzero;fill:rgb(100%,100%,100%);fill-opacity:1;" d="M 5043.308594 3094.488281 L 5125.984375 3094.488281 L 5125.984375 3259.84375 L 5043.308594 3259.84375 Z M 5043.308594 3094.488281 "/>
<path style=" stroke:none;fill-rule:nonzero;fill:rgb(100%,100%,100%);fill-opacity:1;" d="M 4795.277344 3259.84375 L 4877.953125 3259.84375 L 4877.953125 3342.519531 L 4795.277344 3342.519531 Z M 4795.277344 3259.84375 "/>
<path style=" stroke:none;fill-rule:nonzero;fill:rgb(100%,100%,100%);fill-opacity:1;" d="M 4960.628906 3259.84375 L 5043.308594 3259.84375 L 5043.308594 3342.519531 L 5125.984375 3342.519531 L 5125.984375 3425.195312 L 4877.953125 3425.195312 L 4877.953125 3342.519531 L 4960.628906 3342.519531 Z M 4960.628906 3259.84375 "/>
</g>
</svg>
